<?xml version="1.0" standalone="no"?>
<!DOCTYPE svg PUBLIC "-//W3C//DTD SVG 20010904//EN"
 "http://www.w3.org/TR/2001/REC-SVG-20010904/DTD/svg10.dtd">
<svg version="1.0" xmlns="http://www.w3.org/2000/svg"
 width="935.000000pt" height="935.000000pt" viewBox="0 0 935.000000 935.000000"
 preserveAspectRatio="xMidYMid meet">

<g transform="translate(0.000000,935.000000) scale(0.100000,-0.100000)"
fill="#000000" stroke="none">
<path d="M0 4675 l0 -4675 4675 0 4675 0 0 4675 0 4675 -4675 0 -4675 0 0
-4675z m5000 4520 c644 -24 1345 -136 1837 -296 208 -67 328 -115 498 -199
449 -220 665 -459 666 -737 0 -99 -12 -147 -57 -233 -216 -411 -1015 -759
-2097 -915 -382 -54 -655 -75 -1112 -82 -719 -11 -1328 45 -1927 178 -884 197
-1471 523 -1611 896 -17 46 -22 79 -21 158 0 166 51 272 204 425 425 427 1461
735 2690 800 333 18 537 19 930 5z m-1815 -4230 c50 -9 120 -25 158 -37 l67
-22 0 -228 0 -227 -60 35 c-158 93 -393 137 -550 103 -63 -13 -138 -63 -164
-108 -31 -54 -28 -154 7 -213 37 -63 94 -102 314 -216 103 -54 215 -116 249
-139 205 -140 295 -292 296 -503 1 -190 -48 -319 -167 -436 -124 -123 -300
-193 -545 -216 -216 -20 -475 17 -625 88 l-60 29 -3 238 c-1 153 1 237 8 237
5 0 33 -18 62 -40 72 -54 196 -114 293 -141 62 -18 107 -23 205 -23 122 -1
127 0 193 32 102 51 144 131 118 228 -26 98 -89 151 -316 265 -88 45 -196 105
-241 135 -142 93 -247 215 -293 338 -45 120 -45 284 -2 410 78 222 284 374
571 421 107 18 358 13 485 -10z m1788 10 c556 -84 895 -566 847 -1205 -33
-427 -247 -763 -577 -907 -35 -15 -63 -30 -63 -33 0 -3 125 -121 278 -262 152
-141 290 -270 306 -287 l30 -31 -320 0 -321 0 -222 249 -222 250 -57 6 c-493
53 -841 380 -927 869 -20 116 -20 335 1 457 18 110 61 245 107 338 204 414
648 630 1140 556z m1697 -905 l0 -880 400 0 400 0 0 -200 0 -200 -645 0 -645
0 0 1080 0 1080 245 0 245 0 0 -880z"/>
<path d="M4633 4545 c-176 -48 -308 -190 -372 -400 -42 -134 -44 -386 -6 -535
40 -157 146 -306 263 -368 120 -64 292 -79 417 -36 123 41 229 140 294 271 83
166 101 439 45 661 -52 208 -201 371 -375 411 -62 15 -205 12 -266 -4z"/>
</g>
</svg>
